<mxfile host="65bd71144e">
    <diagram id="P4HUfrbcG1lC8khm-J7M" name="Page-1">
        <mxGraphModel dx="1259" dy="220" grid="1" gridSize="10" guides="1" tooltips="1" connect="1" arrows="1" fold="1" page="1" pageScale="1" pageWidth="850" pageHeight="1100" math="0" shadow="0">
            <root>
                <mxCell id="0"/>
                <mxCell id="1" parent="0"/>
                <mxCell id="10" style="edgeStyle=none;html=1;exitX=1;exitY=0.5;exitDx=0;exitDy=0;entryX=0;entryY=0.25;entryDx=0;entryDy=0;" edge="1" parent="1" source="2" target="5">
                    <mxGeometry relative="1" as="geometry"/>
                </mxCell>
                <mxCell id="2" value="Producto&lt;div&gt;nombre&lt;/div&gt;&lt;div&gt;descripcion&lt;/div&gt;&lt;div&gt;precio_compra&lt;/div&gt;&lt;div&gt;precio_venta&lt;/div&gt;&lt;div&gt;activo&lt;/div&gt;&lt;div&gt;categoriafk&lt;/div&gt;&lt;div&gt;proveedorfk&lt;/div&gt;" style="whiteSpace=wrap;html=1;aspect=fixed;" vertex="1" parent="1">
                    <mxGeometry x="400" y="120" width="120" height="120" as="geometry"/>
                </mxCell>
                <mxCell id="3" value="Sucursal&lt;div&gt;nombre&lt;/div&gt;&lt;div&gt;descripcion&lt;/div&gt;" style="whiteSpace=wrap;html=1;aspect=fixed;" vertex="1" parent="1">
                    <mxGeometry x="680" y="80" width="80" height="80" as="geometry"/>
                </mxCell>
                <mxCell id="4" value="Categoria&lt;div&gt;nombre&lt;/div&gt;&lt;div&gt;descripcion&lt;/div&gt;" style="whiteSpace=wrap;html=1;aspect=fixed;" vertex="1" parent="1">
                    <mxGeometry x="250" y="120" width="80" height="80" as="geometry"/>
                </mxCell>
                <mxCell id="13" style="edgeStyle=none;html=1;exitX=1;exitY=0.5;exitDx=0;exitDy=0;entryX=0.5;entryY=0;entryDx=0;entryDy=0;" edge="1" parent="1" source="5" target="12">
                    <mxGeometry relative="1" as="geometry"/>
                </mxCell>
                <mxCell id="5" value="Inventario&lt;div&gt;productofk&lt;/div&gt;&lt;div&gt;sucursalfk&lt;/div&gt;&lt;div&gt;stock&lt;/div&gt;&lt;div&gt;stock_minimo&lt;/div&gt;" style="whiteSpace=wrap;html=1;aspect=fixed;" vertex="1" parent="1">
                    <mxGeometry x="570" y="200" width="80" height="80" as="geometry"/>
                </mxCell>
                <mxCell id="9" style="edgeStyle=none;html=1;entryX=0;entryY=1;entryDx=0;entryDy=0;" edge="1" parent="1" source="6" target="2">
                    <mxGeometry relative="1" as="geometry"/>
                </mxCell>
                <mxCell id="6" value="Proveedor&lt;div&gt;nombre&lt;/div&gt;&lt;div&gt;telefono&lt;/div&gt;&lt;div&gt;email&lt;/div&gt;&lt;div&gt;direccion&lt;/div&gt;&lt;div&gt;contacto&lt;/div&gt;" style="whiteSpace=wrap;html=1;aspect=fixed;" vertex="1" parent="1">
                    <mxGeometry x="230" y="240" width="100" height="100" as="geometry"/>
                </mxCell>
                <mxCell id="7" value="Sistema de Inventario" style="text;html=1;align=center;verticalAlign=middle;resizable=0;points=[];autosize=1;strokeColor=none;fillColor=none;" vertex="1" parent="1">
                    <mxGeometry x="410" y="60" width="140" height="30" as="geometry"/>
                </mxCell>
                <mxCell id="8" style="edgeStyle=none;html=1;exitX=1;exitY=0.5;exitDx=0;exitDy=0;entryX=-0.004;entryY=0.341;entryDx=0;entryDy=0;entryPerimeter=0;" edge="1" parent="1" source="4" target="2">
                    <mxGeometry relative="1" as="geometry"/>
                </mxCell>
                <mxCell id="11" style="edgeStyle=none;html=1;exitX=0.5;exitY=1;exitDx=0;exitDy=0;entryX=0.842;entryY=-0.041;entryDx=0;entryDy=0;entryPerimeter=0;" edge="1" parent="1" source="3" target="5">
                    <mxGeometry relative="1" as="geometry"/>
                </mxCell>
                <mxCell id="12" value="Movimiento de Inventario&lt;div&gt;inventariofk&lt;/div&gt;&lt;div&gt;tipo_movimiento(e/s/a)&lt;/div&gt;&lt;div&gt;cantidad&lt;/div&gt;&lt;div&gt;fecha&lt;/div&gt;&lt;div&gt;observacion&lt;/div&gt;&lt;div&gt;usuario&lt;/div&gt;" style="whiteSpace=wrap;html=1;aspect=fixed;" vertex="1" parent="1">
                    <mxGeometry x="630" y="330" width="150" height="150" as="geometry"/>
                </mxCell>
            </root>
        </mxGraphModel>
    </diagram>
</mxfile>